<mxfile host="Electron" agent="Mozilla/5.0 (Macintosh; Intel Mac OS X 10_15_7) AppleWebKit/537.36 (KHTML, like Gecko) draw.io/24.7.5 Chrome/126.0.6478.183 Electron/31.3.0 Safari/537.36" version="24.7.5">
  <diagram id="R2lEEEUBdFMjLlhIrx00" name="Page-1">
    <mxGraphModel dx="1169" dy="768" grid="1" gridSize="10" guides="1" tooltips="1" connect="1" arrows="1" fold="1" page="1" pageScale="1" pageWidth="850" pageHeight="1100" math="0" shadow="0" extFonts="Permanent Marker^https://fonts.googleapis.com/css?family=Permanent+Marker">
      <root>
        <mxCell id="0" />
        <mxCell id="1" parent="0" />
        <mxCell id="VhhlfXbD_9GwfbsZCxs5-2" value="Route" style="rounded=0;whiteSpace=wrap;html=1;fillColor=#008a00;fontColor=#ffffff;strokeColor=#005700;" parent="1" vertex="1">
          <mxGeometry x="300" y="180" width="120" height="60" as="geometry" />
        </mxCell>
        <mxCell id="VhhlfXbD_9GwfbsZCxs5-3" value="&lt;u&gt;id (Long)&lt;/u&gt;" style="ellipse;whiteSpace=wrap;html=1;fillColor=#d5e8d4;strokeColor=#82b366;" parent="1" vertex="1">
          <mxGeometry x="105" y="237.07" width="90" height="40" as="geometry" />
        </mxCell>
        <mxCell id="VhhlfXbD_9GwfbsZCxs5-4" value="name(String-not null)" style="ellipse;whiteSpace=wrap;html=1;fillColor=#d5e8d4;strokeColor=#82b366;" parent="1" vertex="1">
          <mxGeometry x="95" y="180" width="110" height="40" as="geometry" />
        </mxCell>
        <mxCell id="VhhlfXbD_9GwfbsZCxs5-5" value="description(String)" style="ellipse;whiteSpace=wrap;html=1;fillColor=#d5e8d4;strokeColor=#82b366;" parent="1" vertex="1">
          <mxGeometry x="95" y="116.25" width="120" height="40" as="geometry" />
        </mxCell>
        <mxCell id="VhhlfXbD_9GwfbsZCxs5-6" value="start(String)" style="ellipse;whiteSpace=wrap;html=1;fillColor=#d5e8d4;strokeColor=#82b366;" parent="1" vertex="1">
          <mxGeometry x="733.31" y="120.19" width="100" height="40" as="geometry" />
        </mxCell>
        <mxCell id="VhhlfXbD_9GwfbsZCxs5-12" value="" style="endArrow=none;html=1;rounded=0;" parent="1" source="VhhlfXbD_9GwfbsZCxs5-4" target="VhhlfXbD_9GwfbsZCxs5-2" edge="1">
          <mxGeometry width="50" height="50" relative="1" as="geometry">
            <mxPoint x="400" y="100" as="sourcePoint" />
            <mxPoint x="450" y="50" as="targetPoint" />
          </mxGeometry>
        </mxCell>
        <mxCell id="VhhlfXbD_9GwfbsZCxs5-13" value="" style="endArrow=none;html=1;rounded=0;exitX=0.5;exitY=1;exitDx=0;exitDy=0;exitPerimeter=0;" parent="1" source="VhhlfXbD_9GwfbsZCxs5-5" edge="1" target="VhhlfXbD_9GwfbsZCxs5-2">
          <mxGeometry width="50" height="50" relative="1" as="geometry">
            <mxPoint x="400" y="100" as="sourcePoint" />
            <mxPoint x="360" y="180" as="targetPoint" />
          </mxGeometry>
        </mxCell>
        <mxCell id="VhhlfXbD_9GwfbsZCxs5-14" value="" style="endArrow=none;html=1;rounded=0;exitX=0.5;exitY=1;exitDx=0;exitDy=0;entryX=0.5;entryY=0;entryDx=0;entryDy=0;" parent="1" source="VhhlfXbD_9GwfbsZCxs5-6" target="3sKzdcCsHFWVjW7zBMvB-71" edge="1">
          <mxGeometry width="50" height="50" relative="1" as="geometry">
            <mxPoint x="531.4399999999999" y="127.69" as="sourcePoint" />
            <mxPoint x="743.31" y="107.69" as="targetPoint" />
          </mxGeometry>
        </mxCell>
        <mxCell id="VhhlfXbD_9GwfbsZCxs5-15" value="" style="endArrow=none;html=1;rounded=0;entryX=0;entryY=0.5;entryDx=0;entryDy=0;exitX=0.905;exitY=0.517;exitDx=0;exitDy=0;exitPerimeter=0;" parent="1" source="3sKzdcCsHFWVjW7zBMvB-73" target="3sKzdcCsHFWVjW7zBMvB-71" edge="1">
          <mxGeometry width="50" height="50" relative="1" as="geometry">
            <mxPoint x="605" y="218.75" as="sourcePoint" />
            <mxPoint x="720" y="140" as="targetPoint" />
          </mxGeometry>
        </mxCell>
        <mxCell id="VhhlfXbD_9GwfbsZCxs5-18" value="" style="endArrow=none;html=1;rounded=0;entryX=0;entryY=0.5;entryDx=0;entryDy=0;" parent="1" source="VhhlfXbD_9GwfbsZCxs5-3" target="VhhlfXbD_9GwfbsZCxs5-2" edge="1">
          <mxGeometry width="50" height="50" relative="1" as="geometry">
            <mxPoint x="400" y="100" as="sourcePoint" />
            <mxPoint x="450" y="50" as="targetPoint" />
          </mxGeometry>
        </mxCell>
        <mxCell id="VhhlfXbD_9GwfbsZCxs5-20" value="Date (LocalDateTime, default CURRENT_TIMESTAMP)" style="ellipse;whiteSpace=wrap;html=1;fillColor=#ffe6cc;strokeColor=#d79b00;" parent="1" vertex="1">
          <mxGeometry x="98.31000000000006" y="402" width="161.69" height="68" as="geometry" />
        </mxCell>
        <mxCell id="VhhlfXbD_9GwfbsZCxs5-26" value="" style="endArrow=none;html=1;rounded=0;" parent="1" target="VhhlfXbD_9GwfbsZCxs5-20" edge="1">
          <mxGeometry width="50" height="50" relative="1" as="geometry">
            <mxPoint x="320" y="440" as="sourcePoint" />
            <mxPoint x="440" y="410" as="targetPoint" />
            <Array as="points" />
          </mxGeometry>
        </mxCell>
        <mxCell id="VhhlfXbD_9GwfbsZCxs5-35" value="1:M" style="text;strokeColor=none;fillColor=none;html=1;fontSize=24;fontStyle=1;verticalAlign=middle;align=center;" parent="1" vertex="1">
          <mxGeometry x="415" y="500" width="70" height="30" as="geometry" />
        </mxCell>
        <mxCell id="VhhlfXbD_9GwfbsZCxs5-36" value="User" style="rounded=0;whiteSpace=wrap;html=1;fillColor=#1ba1e2;fontColor=#ffffff;strokeColor=#006EAF;" parent="1" vertex="1">
          <mxGeometry x="305" y="617.5" width="110" height="50" as="geometry" />
        </mxCell>
        <mxCell id="VhhlfXbD_9GwfbsZCxs5-37" value="" style="endArrow=none;html=1;rounded=0;exitX=0.5;exitY=0;exitDx=0;exitDy=0;entryX=0.5;entryY=1;entryDx=0;entryDy=0;" parent="1" source="3sKzdcCsHFWVjW7zBMvB-61" target="3sKzdcCsHFWVjW7zBMvB-62" edge="1">
          <mxGeometry width="50" height="50" relative="1" as="geometry">
            <mxPoint x="400" y="480" as="sourcePoint" />
            <mxPoint x="360" y="430" as="targetPoint" />
          </mxGeometry>
        </mxCell>
        <mxCell id="VhhlfXbD_9GwfbsZCxs5-38" value="(0,M)" style="text;strokeColor=none;fillColor=none;html=1;fontSize=24;fontStyle=1;verticalAlign=middle;align=center;fontFamily=Helvetica;fontColor=default;" parent="1" vertex="1">
          <mxGeometry x="350.75" y="351.13" width="100" height="40" as="geometry" />
        </mxCell>
        <mxCell id="VhhlfXbD_9GwfbsZCxs5-39" value="&lt;u&gt;name(String)&lt;/u&gt;" style="ellipse;whiteSpace=wrap;html=1;fillColor=#dae8fc;strokeColor=#6c8ebf;" parent="1" vertex="1">
          <mxGeometry x="80" y="557.5" width="100" height="40" as="geometry" />
        </mxCell>
        <mxCell id="VhhlfXbD_9GwfbsZCxs5-40" value="password(String-notNull)" style="ellipse;whiteSpace=wrap;html=1;fillColor=#dae8fc;strokeColor=#6c8ebf;" parent="1" vertex="1">
          <mxGeometry x="80" y="687.5" width="110" height="40" as="geometry" />
        </mxCell>
        <mxCell id="VhhlfXbD_9GwfbsZCxs5-43" value="email(String)" style="ellipse;whiteSpace=wrap;html=1;fillColor=#dae8fc;strokeColor=#6c8ebf;" parent="1" vertex="1">
          <mxGeometry x="80" y="617.5" width="105" height="45" as="geometry" />
        </mxCell>
        <mxCell id="VhhlfXbD_9GwfbsZCxs5-44" value="icon(String)" style="ellipse;whiteSpace=wrap;html=1;align=center;fillColor=#dae8fc;strokeColor=#6c8ebf;" parent="1" vertex="1">
          <mxGeometry x="190" y="735" width="100" height="40" as="geometry" />
        </mxCell>
        <mxCell id="VhhlfXbD_9GwfbsZCxs5-45" value="phone(String)" style="ellipse;whiteSpace=wrap;html=1;align=center;fillColor=#dae8fc;strokeColor=#6c8ebf;" parent="1" vertex="1">
          <mxGeometry x="305" y="700" width="80" height="40" as="geometry" />
        </mxCell>
        <mxCell id="VhhlfXbD_9GwfbsZCxs5-47" value="aboutMe(String)" style="ellipse;whiteSpace=wrap;html=1;align=center;fillColor=#dae8fc;strokeColor=#6c8ebf;" parent="1" vertex="1">
          <mxGeometry x="410" y="710" width="100" height="40" as="geometry" />
        </mxCell>
        <mxCell id="VhhlfXbD_9GwfbsZCxs5-49" value="" style="endArrow=none;html=1;rounded=0;entryX=0;entryY=0;entryDx=0;entryDy=0;" parent="1" source="VhhlfXbD_9GwfbsZCxs5-39" target="VhhlfXbD_9GwfbsZCxs5-36" edge="1">
          <mxGeometry width="50" height="50" relative="1" as="geometry">
            <mxPoint x="420" y="597.5" as="sourcePoint" />
            <mxPoint x="470" y="547.5" as="targetPoint" />
          </mxGeometry>
        </mxCell>
        <mxCell id="VhhlfXbD_9GwfbsZCxs5-50" value="" style="endArrow=none;html=1;rounded=0;exitX=1;exitY=0.5;exitDx=0;exitDy=0;entryX=0;entryY=0.5;entryDx=0;entryDy=0;" parent="1" source="VhhlfXbD_9GwfbsZCxs5-43" target="VhhlfXbD_9GwfbsZCxs5-36" edge="1">
          <mxGeometry width="50" height="50" relative="1" as="geometry">
            <mxPoint x="104.97000000000008" y="639.5" as="sourcePoint" />
            <mxPoint x="470" y="547.5" as="targetPoint" />
          </mxGeometry>
        </mxCell>
        <mxCell id="VhhlfXbD_9GwfbsZCxs5-51" value="" style="endArrow=none;html=1;rounded=0;entryX=0;entryY=1;entryDx=0;entryDy=0;exitX=1;exitY=0;exitDx=0;exitDy=0;" parent="1" source="VhhlfXbD_9GwfbsZCxs5-40" target="VhhlfXbD_9GwfbsZCxs5-36" edge="1">
          <mxGeometry width="50" height="50" relative="1" as="geometry">
            <mxPoint x="126.69" y="714" as="sourcePoint" />
            <mxPoint x="470" y="547.5" as="targetPoint" />
          </mxGeometry>
        </mxCell>
        <mxCell id="VhhlfXbD_9GwfbsZCxs5-52" value="" style="endArrow=none;html=1;rounded=0;exitX=0.5;exitY=0;exitDx=0;exitDy=0;entryX=0.25;entryY=1;entryDx=0;entryDy=0;" parent="1" source="VhhlfXbD_9GwfbsZCxs5-44" target="VhhlfXbD_9GwfbsZCxs5-36" edge="1">
          <mxGeometry width="50" height="50" relative="1" as="geometry">
            <mxPoint x="420" y="597.5" as="sourcePoint" />
            <mxPoint x="470" y="547.5" as="targetPoint" />
          </mxGeometry>
        </mxCell>
        <mxCell id="VhhlfXbD_9GwfbsZCxs5-54" value="" style="endArrow=none;html=1;rounded=0;entryX=0.5;entryY=0;entryDx=0;entryDy=0;exitX=0.386;exitY=1.03;exitDx=0;exitDy=0;exitPerimeter=0;" parent="1" source="VhhlfXbD_9GwfbsZCxs5-36" target="VhhlfXbD_9GwfbsZCxs5-45" edge="1">
          <mxGeometry width="50" height="50" relative="1" as="geometry">
            <mxPoint x="360" y="657.5" as="sourcePoint" />
            <mxPoint x="470" y="547.5" as="targetPoint" />
            <Array as="points" />
          </mxGeometry>
        </mxCell>
        <mxCell id="VhhlfXbD_9GwfbsZCxs5-55" value="" style="endArrow=none;html=1;rounded=0;entryX=0.5;entryY=0;entryDx=0;entryDy=0;exitX=0.586;exitY=1;exitDx=0;exitDy=0;exitPerimeter=0;" parent="1" source="VhhlfXbD_9GwfbsZCxs5-36" target="VhhlfXbD_9GwfbsZCxs5-47" edge="1">
          <mxGeometry width="50" height="50" relative="1" as="geometry">
            <mxPoint x="420" y="597.5" as="sourcePoint" />
            <mxPoint x="470" y="547.5" as="targetPoint" />
          </mxGeometry>
        </mxCell>
        <mxCell id="VhhlfXbD_9GwfbsZCxs5-61" value="difficulty(Byte, default 1, MINVALUE 0, MAXVALUE 10)" style="ellipse;whiteSpace=wrap;html=1;fillColor=#d5e8d4;strokeColor=#82b366;" parent="1" vertex="1">
          <mxGeometry x="143.31" y="10" width="170" height="100" as="geometry" />
        </mxCell>
        <mxCell id="VhhlfXbD_9GwfbsZCxs5-62" value="distance(Int, default 0)" style="ellipse;whiteSpace=wrap;html=1;fillColor=#d5e8d4;strokeColor=#82b366;" parent="1" vertex="1">
          <mxGeometry x="326.25" y="20" width="93.75" height="55" as="geometry" />
        </mxCell>
        <mxCell id="VhhlfXbD_9GwfbsZCxs5-63" value="circular (boolean, default 1)" style="ellipse;whiteSpace=wrap;html=1;fillColor=#d5e8d4;strokeColor=#82b366;" parent="1" vertex="1">
          <mxGeometry x="380" y="90" width="170" height="40" as="geometry" />
        </mxCell>
        <mxCell id="VhhlfXbD_9GwfbsZCxs5-64" value="" style="endArrow=none;html=1;rounded=0;exitX=0.138;exitY=0.058;exitDx=0;exitDy=0;exitPerimeter=0;entryX=0.5;entryY=1;entryDx=0;entryDy=0;" parent="1" source="VhhlfXbD_9GwfbsZCxs5-2" target="VhhlfXbD_9GwfbsZCxs5-61" edge="1">
          <mxGeometry width="50" height="50" relative="1" as="geometry">
            <mxPoint x="430" y="420" as="sourcePoint" />
            <mxPoint x="430" y="120" as="targetPoint" />
          </mxGeometry>
        </mxCell>
        <mxCell id="VhhlfXbD_9GwfbsZCxs5-65" value="" style="endArrow=none;html=1;rounded=0;" parent="1" source="VhhlfXbD_9GwfbsZCxs5-2" target="VhhlfXbD_9GwfbsZCxs5-62" edge="1">
          <mxGeometry width="50" height="50" relative="1" as="geometry">
            <mxPoint x="430" y="420" as="sourcePoint" />
            <mxPoint x="480" y="370" as="targetPoint" />
          </mxGeometry>
        </mxCell>
        <mxCell id="VhhlfXbD_9GwfbsZCxs5-66" value="" style="endArrow=none;html=1;rounded=0;exitX=0.879;exitY=0.008;exitDx=0;exitDy=0;exitPerimeter=0;" parent="1" source="VhhlfXbD_9GwfbsZCxs5-2" target="VhhlfXbD_9GwfbsZCxs5-63" edge="1">
          <mxGeometry width="50" height="50" relative="1" as="geometry">
            <mxPoint x="430" y="420" as="sourcePoint" />
            <mxPoint x="480" y="370" as="targetPoint" />
          </mxGeometry>
        </mxCell>
        <mxCell id="VhhlfXbD_9GwfbsZCxs5-70" value="difficulty(Byte, default 1,&lt;div&gt;MINVALUE 0, MAXVALUE 10)&lt;/div&gt;" style="ellipse;whiteSpace=wrap;html=1;fillColor=#dae8fc;strokeColor=#6c8ebf;" parent="1" vertex="1">
          <mxGeometry x="810" y="642.69" width="160" height="70" as="geometry" />
        </mxCell>
        <mxCell id="VhhlfXbD_9GwfbsZCxs5-71" value="distanceApprox(Int, 0)" style="ellipse;whiteSpace=wrap;html=1;fillColor=#dae8fc;strokeColor=#6c8ebf;" parent="1" vertex="1">
          <mxGeometry x="668.7499999999999" y="710" width="145" height="40" as="geometry" />
        </mxCell>
        <mxCell id="VhhlfXbD_9GwfbsZCxs5-75" value="" style="endArrow=none;html=1;rounded=0;exitX=0.5;exitY=0;exitDx=0;exitDy=0;entryX=0.5;entryY=0;entryDx=0;entryDy=0;" parent="1" source="3sKzdcCsHFWVjW7zBMvB-18" target="VhhlfXbD_9GwfbsZCxs5-70" edge="1">
          <mxGeometry width="50" height="50" relative="1" as="geometry">
            <mxPoint x="1043.71" y="605.19" as="sourcePoint" />
            <mxPoint x="725.7327787671366" y="792.9602743150222" as="targetPoint" />
          </mxGeometry>
        </mxCell>
        <mxCell id="3sKzdcCsHFWVjW7zBMvB-5" value="" style="endArrow=none;html=1;rounded=0;exitX=1;exitY=0.5;exitDx=0;exitDy=0;entryX=0;entryY=0.5;entryDx=0;entryDy=0;" edge="1" parent="1" source="VhhlfXbD_9GwfbsZCxs5-36" target="3sKzdcCsHFWVjW7zBMvB-59">
          <mxGeometry width="50" height="50" relative="1" as="geometry">
            <mxPoint x="515.0000000000001" y="648" as="sourcePoint" />
            <mxPoint x="766.69" y="645" as="targetPoint" />
          </mxGeometry>
        </mxCell>
        <mxCell id="3sKzdcCsHFWVjW7zBMvB-6" value="(1,0)" style="text;strokeColor=none;fillColor=none;html=1;fontSize=24;fontStyle=1;verticalAlign=middle;align=center;fontFamily=Helvetica;fontColor=default;" vertex="1" parent="1">
          <mxGeometry x="606.69" y="602.5" width="67.5" height="50" as="geometry" />
        </mxCell>
        <mxCell id="3sKzdcCsHFWVjW7zBMvB-13" value="" style="endArrow=none;html=1;rounded=0;entryX=0;entryY=0.5;entryDx=0;entryDy=0;exitX=0.9;exitY=0.75;exitDx=0;exitDy=0;exitPerimeter=0;" edge="1" parent="1" source="3sKzdcCsHFWVjW7zBMvB-71" target="3sKzdcCsHFWVjW7zBMvB-103">
          <mxGeometry width="50" height="50" relative="1" as="geometry">
            <mxPoint x="762.7852799207517" y="157.95236003962412" as="sourcePoint" />
            <mxPoint x="906.1109228486521" y="336.28953857567393" as="targetPoint" />
          </mxGeometry>
        </mxCell>
        <mxCell id="3sKzdcCsHFWVjW7zBMvB-14" value="(1,1)" style="text;strokeColor=none;fillColor=none;html=1;fontSize=24;fontStyle=1;verticalAlign=middle;align=center;fontFamily=Helvetica;fontColor=default;" vertex="1" parent="1">
          <mxGeometry x="435" y="179" width="60" height="41.25" as="geometry" />
        </mxCell>
        <mxCell id="3sKzdcCsHFWVjW7zBMvB-18" value="RoutePreferences" style="shape=ext;margin=3;double=1;whiteSpace=wrap;html=1;align=center;fillColor=#1ba1e2;fontColor=#ffffff;strokeColor=#006EAF;" vertex="1" parent="1">
          <mxGeometry x="689.9999999999999" y="622.69" width="100" height="40" as="geometry" />
        </mxCell>
        <mxCell id="3sKzdcCsHFWVjW7zBMvB-25" value="&lt;u&gt;id(int)&lt;/u&gt;" style="ellipse;whiteSpace=wrap;html=1;align=center;fillColor=#d5e8d4;strokeColor=#82b366;" vertex="1" parent="1">
          <mxGeometry x="1191.44" y="30.000000000000007" width="100" height="40" as="geometry" />
        </mxCell>
        <mxCell id="3sKzdcCsHFWVjW7zBMvB-27" value="" style="endArrow=none;html=1;rounded=0;entryX=0;entryY=0.5;entryDx=0;entryDy=0;exitX=1;exitY=0.25;exitDx=0;exitDy=0;" edge="1" parent="1" source="3sKzdcCsHFWVjW7zBMvB-71" target="3sKzdcCsHFWVjW7zBMvB-85">
          <mxGeometry width="50" height="50" relative="1" as="geometry">
            <mxPoint x="783.31" y="127.69" as="sourcePoint" />
            <mxPoint x="1121.44" y="97.69" as="targetPoint" />
          </mxGeometry>
        </mxCell>
        <mxCell id="3sKzdcCsHFWVjW7zBMvB-28" value="" style="endArrow=none;html=1;rounded=0;entryX=0;entryY=0.5;entryDx=0;entryDy=0;exitX=1;exitY=0;exitDx=0;exitDy=0;" edge="1" parent="1" target="3sKzdcCsHFWVjW7zBMvB-25">
          <mxGeometry width="50" height="50" relative="1" as="geometry">
            <mxPoint x="1171.44" y="80" as="sourcePoint" />
            <mxPoint x="1071.44" y="440" as="targetPoint" />
          </mxGeometry>
        </mxCell>
        <mxCell id="3sKzdcCsHFWVjW7zBMvB-30" value="name(String)" style="ellipse;whiteSpace=wrap;html=1;fillColor=#d5e8d4;strokeColor=#82b366;" vertex="1" parent="1">
          <mxGeometry x="1191.44" y="87.5" width="100" height="45" as="geometry" />
        </mxCell>
        <mxCell id="3sKzdcCsHFWVjW7zBMvB-31" value="" style="endArrow=none;html=1;rounded=0;exitX=1;exitY=0.5;exitDx=0;exitDy=0;" edge="1" parent="1" target="3sKzdcCsHFWVjW7zBMvB-30">
          <mxGeometry width="50" height="50" relative="1" as="geometry">
            <mxPoint x="1171.44" y="110" as="sourcePoint" />
            <mxPoint x="1071.44" y="300" as="targetPoint" />
          </mxGeometry>
        </mxCell>
        <mxCell id="3sKzdcCsHFWVjW7zBMvB-32" value="&lt;u&gt;id(int)&lt;/u&gt;" style="ellipse;whiteSpace=wrap;html=1;fillColor=#d5e8d4;strokeColor=#82b366;" vertex="1" parent="1">
          <mxGeometry x="1213.31" y="230" width="66.69" height="30.44" as="geometry" />
        </mxCell>
        <mxCell id="3sKzdcCsHFWVjW7zBMvB-33" value="" style="endArrow=none;html=1;rounded=0;exitX=1;exitY=0.5;exitDx=0;exitDy=0;" edge="1" parent="1" target="3sKzdcCsHFWVjW7zBMvB-32">
          <mxGeometry width="50" height="50" relative="1" as="geometry">
            <mxPoint x="1163.31" y="270" as="sourcePoint" />
            <mxPoint x="1181.4400000000069" y="230" as="targetPoint" />
            <Array as="points" />
          </mxGeometry>
        </mxCell>
        <mxCell id="3sKzdcCsHFWVjW7zBMvB-34" value="name(String)" style="ellipse;whiteSpace=wrap;html=1;fillColor=#d5e8d4;strokeColor=#82b366;" vertex="1" parent="1">
          <mxGeometry x="1213.31" y="277.07" width="86.69" height="52.93" as="geometry" />
        </mxCell>
        <mxCell id="3sKzdcCsHFWVjW7zBMvB-35" value="" style="endArrow=none;html=1;rounded=0;exitX=1;exitY=1;exitDx=0;exitDy=0;entryX=0;entryY=0.5;entryDx=0;entryDy=0;" edge="1" parent="1" source="3sKzdcCsHFWVjW7zBMvB-146" target="3sKzdcCsHFWVjW7zBMvB-34">
          <mxGeometry width="50" height="50" relative="1" as="geometry">
            <mxPoint x="1163.31" y="270" as="sourcePoint" />
            <mxPoint x="1191.44" y="345" as="targetPoint" />
            <Array as="points" />
          </mxGeometry>
        </mxCell>
        <mxCell id="3sKzdcCsHFWVjW7zBMvB-41" value="(0,0)" style="text;strokeColor=none;fillColor=none;html=1;fontSize=24;fontStyle=1;verticalAlign=middle;align=center;fontFamily=Helvetica;fontColor=default;" vertex="1" parent="1">
          <mxGeometry x="823.31" y="70.19" width="75" height="52.5" as="geometry" />
        </mxCell>
        <mxCell id="3sKzdcCsHFWVjW7zBMvB-44" value="" style="endArrow=none;html=1;rounded=0;entryX=0;entryY=0.5;entryDx=0;entryDy=0;exitX=1;exitY=0.75;exitDx=0;exitDy=0;" edge="1" parent="1" source="3sKzdcCsHFWVjW7zBMvB-71" target="3sKzdcCsHFWVjW7zBMvB-96">
          <mxGeometry width="50" height="50" relative="1" as="geometry">
            <mxPoint x="792.8699999999999" y="140.69" as="sourcePoint" />
            <mxPoint x="961.44" y="187.69" as="targetPoint" />
          </mxGeometry>
        </mxCell>
        <mxCell id="3sKzdcCsHFWVjW7zBMvB-43" value="(1,0)" style="text;strokeColor=none;fillColor=none;html=1;fontSize=24;fontStyle=1;verticalAlign=middle;align=center;fontFamily=Helvetica;fontColor=default;" vertex="1" parent="1">
          <mxGeometry x="1003.31" y="217.94" width="35" height="42.5" as="geometry" />
        </mxCell>
        <mxCell id="3sKzdcCsHFWVjW7zBMvB-45" value="(0,0)" style="text;strokeColor=none;fillColor=none;html=1;fontSize=24;fontStyle=1;verticalAlign=middle;align=center;fontFamily=Helvetica;fontColor=default;" vertex="1" parent="1">
          <mxGeometry x="843.3099999999998" y="290.7" width="43.13" height="58.12" as="geometry" />
        </mxCell>
        <mxCell id="3sKzdcCsHFWVjW7zBMvB-47" value="(1,0)" style="text;strokeColor=none;fillColor=none;html=1;fontSize=24;fontStyle=1;verticalAlign=middle;align=center;fontFamily=Helvetica;fontColor=default;" vertex="1" parent="1">
          <mxGeometry x="999.5700000000002" y="388" width="35" height="42.5" as="geometry" />
        </mxCell>
        <mxCell id="3sKzdcCsHFWVjW7zBMvB-48" value="&lt;u&gt;id(int)&lt;/u&gt;" style="ellipse;whiteSpace=wrap;html=1;fillColor=#d5e8d4;strokeColor=#82b366;" vertex="1" parent="1">
          <mxGeometry x="1191.44" y="403" width="78.56" height="27.5" as="geometry" />
        </mxCell>
        <mxCell id="3sKzdcCsHFWVjW7zBMvB-49" value="name(String)" style="ellipse;whiteSpace=wrap;html=1;fillColor=#d5e8d4;strokeColor=#82b366;" vertex="1" parent="1">
          <mxGeometry x="1191.44" y="442.69" width="88.56" height="57.31" as="geometry" />
        </mxCell>
        <mxCell id="3sKzdcCsHFWVjW7zBMvB-50" value="" style="endArrow=none;html=1;rounded=0;exitX=0;exitY=0.5;exitDx=0;exitDy=0;entryX=1;entryY=0.25;entryDx=0;entryDy=0;" edge="1" parent="1" source="3sKzdcCsHFWVjW7zBMvB-48" target="3sKzdcCsHFWVjW7zBMvB-104">
          <mxGeometry width="50" height="50" relative="1" as="geometry">
            <mxPoint x="1181.44" y="592.69" as="sourcePoint" />
            <mxPoint x="1111.31" y="505.69000000000005" as="targetPoint" />
          </mxGeometry>
        </mxCell>
        <mxCell id="3sKzdcCsHFWVjW7zBMvB-51" value="" style="endArrow=none;html=1;rounded=0;entryX=0;entryY=0.5;entryDx=0;entryDy=0;exitX=0.94;exitY=1;exitDx=0;exitDy=0;exitPerimeter=0;" edge="1" parent="1" source="3sKzdcCsHFWVjW7zBMvB-104" target="3sKzdcCsHFWVjW7zBMvB-49">
          <mxGeometry width="50" height="50" relative="1" as="geometry">
            <mxPoint x="1105.31" y="502.69000000000005" as="sourcePoint" />
            <mxPoint x="1231.44" y="542.69" as="targetPoint" />
          </mxGeometry>
        </mxCell>
        <mxCell id="3sKzdcCsHFWVjW7zBMvB-55" value="" style="endArrow=none;html=1;rounded=0;entryX=0.5;entryY=1;entryDx=0;entryDy=0;exitX=0.5;exitY=0;exitDx=0;exitDy=0;" edge="1" parent="1" source="VhhlfXbD_9GwfbsZCxs5-71" target="3sKzdcCsHFWVjW7zBMvB-18">
          <mxGeometry width="50" height="50" relative="1" as="geometry">
            <mxPoint x="580" y="722.69" as="sourcePoint" />
            <mxPoint x="805.81" y="482.69" as="targetPoint" />
            <Array as="points">
              <mxPoint x="740" y="680" />
            </Array>
          </mxGeometry>
        </mxCell>
        <mxCell id="3sKzdcCsHFWVjW7zBMvB-56" value="" style="endArrow=none;html=1;rounded=0;entryX=0.5;entryY=0;entryDx=0;entryDy=0;" edge="1" parent="1" source="3sKzdcCsHFWVjW7zBMvB-18" target="VhhlfXbD_9GwfbsZCxs5-72">
          <mxGeometry width="50" height="50" relative="1" as="geometry">
            <mxPoint x="795.81" y="672.69" as="sourcePoint" />
            <mxPoint x="880.0044127845049" y="813.2983847311891" as="targetPoint" />
          </mxGeometry>
        </mxCell>
        <mxCell id="VhhlfXbD_9GwfbsZCxs5-72" value="circular (boolean, default 1)" style="ellipse;whiteSpace=wrap;html=1;fillColor=#dae8fc;strokeColor=#6c8ebf;" parent="1" vertex="1">
          <mxGeometry x="840" y="535.19" width="110" height="80" as="geometry" />
        </mxCell>
        <mxCell id="3sKzdcCsHFWVjW7zBMvB-57" value="" style="endArrow=none;html=1;rounded=0;exitX=0.5;exitY=0;exitDx=0;exitDy=0;" edge="1" parent="1" source="3sKzdcCsHFWVjW7zBMvB-79" target="3sKzdcCsHFWVjW7zBMvB-71">
          <mxGeometry width="50" height="50" relative="1" as="geometry">
            <mxPoint x="443.31" y="417.69" as="sourcePoint" />
            <mxPoint x="747.31" y="177.69" as="targetPoint" />
          </mxGeometry>
        </mxCell>
        <mxCell id="3sKzdcCsHFWVjW7zBMvB-58" value="(1,1)" style="text;strokeColor=none;fillColor=none;html=1;fontSize=24;fontStyle=1;verticalAlign=middle;align=center;fontFamily=Helvetica;fontColor=default;" vertex="1" parent="1">
          <mxGeometry x="431.6899999999999" y="605" width="60" height="30" as="geometry" />
        </mxCell>
        <mxCell id="3sKzdcCsHFWVjW7zBMvB-59" value="have" style="rhombus;whiteSpace=wrap;html=1;" vertex="1" parent="1">
          <mxGeometry x="516.69" y="617.5" width="100" height="53.75" as="geometry" />
        </mxCell>
        <mxCell id="3sKzdcCsHFWVjW7zBMvB-60" value="1:1" style="text;strokeColor=none;fillColor=none;html=1;fontSize=24;fontStyle=1;verticalAlign=middle;align=center;" vertex="1" parent="1">
          <mxGeometry x="506.6900000000001" y="577.5" width="100" height="40" as="geometry" />
        </mxCell>
        <mxCell id="3sKzdcCsHFWVjW7zBMvB-62" value="have" style="shape=rhombus;perimeter=rhombusPerimeter;whiteSpace=wrap;html=1;align=center;" vertex="1" parent="1">
          <mxGeometry x="310" y="293.01" width="100" height="50" as="geometry" />
        </mxCell>
        <mxCell id="3sKzdcCsHFWVjW7zBMvB-63" value="" style="endArrow=none;html=1;rounded=0;exitX=0.5;exitY=0;exitDx=0;exitDy=0;entryX=0.5;entryY=1;entryDx=0;entryDy=0;" edge="1" parent="1" source="3sKzdcCsHFWVjW7zBMvB-64" target="3sKzdcCsHFWVjW7zBMvB-61">
          <mxGeometry width="50" height="50" relative="1" as="geometry">
            <mxPoint x="384" y="823" as="sourcePoint" />
            <mxPoint x="360" y="500" as="targetPoint" />
            <Array as="points" />
          </mxGeometry>
        </mxCell>
        <mxCell id="3sKzdcCsHFWVjW7zBMvB-61" value="Meeting" style="shape=ext;margin=3;double=1;whiteSpace=wrap;html=1;align=center;fillColor=#a0522d;fontColor=#ffffff;strokeColor=#6D1F00;" vertex="1" parent="1">
          <mxGeometry x="310" y="399.06" width="100" height="40" as="geometry" />
        </mxCell>
        <mxCell id="3sKzdcCsHFWVjW7zBMvB-64" value="join" style="shape=rhombus;perimeter=rhombusPerimeter;whiteSpace=wrap;html=1;align=center;" vertex="1" parent="1">
          <mxGeometry x="296.69" y="490" width="120" height="60" as="geometry" />
        </mxCell>
        <mxCell id="3sKzdcCsHFWVjW7zBMvB-65" value="(1,N)" style="text;strokeColor=none;fillColor=none;html=1;fontSize=24;fontStyle=1;verticalAlign=middle;align=center;fontFamily=Helvetica;fontColor=default;" vertex="1" parent="1">
          <mxGeometry x="364.18999999999994" y="552.5" width="67.5" height="50" as="geometry" />
        </mxCell>
        <mxCell id="3sKzdcCsHFWVjW7zBMvB-67" value="&lt;u&gt;id(Long)&lt;/u&gt;" style="ellipse;whiteSpace=wrap;html=1;align=center;fillColor=#ffe6cc;strokeColor=#d79b00;" vertex="1" parent="1">
          <mxGeometry x="140.85" y="338.01" width="100" height="40" as="geometry" />
        </mxCell>
        <mxCell id="3sKzdcCsHFWVjW7zBMvB-69" value="" style="endArrow=none;html=1;rounded=0;exitX=0;exitY=0.25;exitDx=0;exitDy=0;entryX=1;entryY=0.5;entryDx=0;entryDy=0;" edge="1" parent="1" source="3sKzdcCsHFWVjW7zBMvB-61" target="3sKzdcCsHFWVjW7zBMvB-67">
          <mxGeometry width="50" height="50" relative="1" as="geometry">
            <mxPoint x="480" y="450" as="sourcePoint" />
            <mxPoint x="530" y="400" as="targetPoint" />
          </mxGeometry>
        </mxCell>
        <mxCell id="3sKzdcCsHFWVjW7zBMvB-70" value="1:M" style="text;strokeColor=none;fillColor=none;html=1;fontSize=24;fontStyle=1;verticalAlign=middle;align=center;" vertex="1" parent="1">
          <mxGeometry x="395" y="298.01" width="100" height="40" as="geometry" />
        </mxCell>
        <mxCell id="3sKzdcCsHFWVjW7zBMvB-71" value="Location" style="shape=ext;margin=3;double=1;whiteSpace=wrap;html=1;align=center;fillColor=#008a00;fontColor=#ffffff;strokeColor=#005700;" vertex="1" parent="1">
          <mxGeometry x="683.31" y="197.69" width="100" height="40" as="geometry" />
        </mxCell>
        <mxCell id="3sKzdcCsHFWVjW7zBMvB-73" value="have" style="shape=rhombus;perimeter=rhombusPerimeter;whiteSpace=wrap;html=1;align=center;" vertex="1" parent="1">
          <mxGeometry x="510" y="190" width="100" height="60" as="geometry" />
        </mxCell>
        <mxCell id="3sKzdcCsHFWVjW7zBMvB-74" value="" style="endArrow=none;html=1;rounded=0;exitX=1.004;exitY=0.625;exitDx=0;exitDy=0;entryX=0;entryY=0.5;entryDx=0;entryDy=0;exitPerimeter=0;" edge="1" parent="1" source="VhhlfXbD_9GwfbsZCxs5-2" target="3sKzdcCsHFWVjW7zBMvB-73">
          <mxGeometry width="50" height="50" relative="1" as="geometry">
            <mxPoint x="780" y="390" as="sourcePoint" />
            <mxPoint x="830" y="340" as="targetPoint" />
          </mxGeometry>
        </mxCell>
        <mxCell id="3sKzdcCsHFWVjW7zBMvB-75" value="(1,0)" style="text;strokeColor=none;fillColor=none;html=1;fontSize=24;fontStyle=1;verticalAlign=middle;align=center;fontFamily=Helvetica;fontColor=default;" vertex="1" parent="1">
          <mxGeometry x="600.81" y="173.94" width="60" height="41.25" as="geometry" />
        </mxCell>
        <mxCell id="3sKzdcCsHFWVjW7zBMvB-76" value="1:1" style="text;strokeColor=none;fillColor=none;html=1;fontSize=24;fontStyle=1;verticalAlign=middle;align=center;" vertex="1" parent="1">
          <mxGeometry x="535" y="150" width="70" height="30" as="geometry" />
        </mxCell>
        <mxCell id="3sKzdcCsHFWVjW7zBMvB-79" value="have" style="shape=rhombus;perimeter=rhombusPerimeter;whiteSpace=wrap;html=1;align=center;" vertex="1" parent="1">
          <mxGeometry x="680" y="407.69" width="120" height="60" as="geometry" />
        </mxCell>
        <mxCell id="3sKzdcCsHFWVjW7zBMvB-80" value="(1,0)" style="text;strokeColor=none;fillColor=none;html=1;fontSize=24;fontStyle=1;verticalAlign=middle;align=center;fontFamily=Helvetica;fontColor=default;" vertex="1" parent="1">
          <mxGeometry x="733.31" y="320.31" width="67.5" height="50" as="geometry" />
        </mxCell>
        <mxCell id="3sKzdcCsHFWVjW7zBMvB-81" value="(0,1)" style="text;strokeColor=none;fillColor=none;html=1;fontSize=24;fontStyle=1;verticalAlign=middle;align=center;fontFamily=Helvetica;fontColor=default;" vertex="1" parent="1">
          <mxGeometry x="746.25" y="537.69" width="67.5" height="50" as="geometry" />
        </mxCell>
        <mxCell id="3sKzdcCsHFWVjW7zBMvB-82" value="0:1" style="text;strokeColor=none;fillColor=none;html=1;fontSize=24;fontStyle=1;verticalAlign=middle;align=center;" vertex="1" parent="1">
          <mxGeometry x="800" y="417.69" width="60" height="40" as="geometry" />
        </mxCell>
        <mxCell id="3sKzdcCsHFWVjW7zBMvB-85" value="have" style="rhombus;whiteSpace=wrap;html=1;" vertex="1" parent="1">
          <mxGeometry x="903.31" y="67.69" width="80" height="60.63" as="geometry" />
        </mxCell>
        <mxCell id="3sKzdcCsHFWVjW7zBMvB-86" value="0:1" style="text;strokeColor=none;fillColor=none;html=1;fontSize=24;fontStyle=1;verticalAlign=middle;align=center;" vertex="1" parent="1">
          <mxGeometry x="908.31" y="37.690000000000005" width="70" height="30" as="geometry" />
        </mxCell>
        <mxCell id="3sKzdcCsHFWVjW7zBMvB-87" value="(1,0)" style="text;strokeColor=none;fillColor=none;html=1;fontSize=24;fontStyle=1;verticalAlign=middle;align=center;fontFamily=Helvetica;fontColor=default;" vertex="1" parent="1">
          <mxGeometry x="1013.31" y="52.5" width="35" height="42.5" as="geometry" />
        </mxCell>
        <mxCell id="3sKzdcCsHFWVjW7zBMvB-88" value="Country" style="whiteSpace=wrap;html=1;align=center;fillColor=#008a00;fontColor=#ffffff;strokeColor=#005700;" vertex="1" parent="1">
          <mxGeometry x="1071.44" y="80" width="100" height="40" as="geometry" />
        </mxCell>
        <mxCell id="3sKzdcCsHFWVjW7zBMvB-90" value="have" style="rhombus;whiteSpace=wrap;html=1;" vertex="1" parent="1">
          <mxGeometry x="1073.31" y="166.25" width="80" height="30" as="geometry" />
        </mxCell>
        <mxCell id="3sKzdcCsHFWVjW7zBMvB-91" value="" style="endArrow=none;html=1;rounded=0;entryX=0.409;entryY=0.975;entryDx=0;entryDy=0;entryPerimeter=0;exitX=0.5;exitY=0;exitDx=0;exitDy=0;" edge="1" parent="1" source="3sKzdcCsHFWVjW7zBMvB-90" target="3sKzdcCsHFWVjW7zBMvB-88">
          <mxGeometry width="50" height="50" relative="1" as="geometry">
            <mxPoint x="863.31" y="420" as="sourcePoint" />
            <mxPoint x="913.31" y="370" as="targetPoint" />
          </mxGeometry>
        </mxCell>
        <mxCell id="3sKzdcCsHFWVjW7zBMvB-92" value="" style="endArrow=none;html=1;rounded=0;" edge="1" parent="1" target="3sKzdcCsHFWVjW7zBMvB-90">
          <mxGeometry width="50" height="50" relative="1" as="geometry">
            <mxPoint x="1113.31" y="247.68999999999994" as="sourcePoint" />
            <mxPoint x="1113.31" y="200" as="targetPoint" />
          </mxGeometry>
        </mxCell>
        <mxCell id="3sKzdcCsHFWVjW7zBMvB-93" value="(1,N)" style="text;strokeColor=none;fillColor=none;html=1;fontSize=24;fontStyle=1;verticalAlign=middle;align=center;fontFamily=Helvetica;fontColor=default;" vertex="1" parent="1">
          <mxGeometry x="1103.3100000000002" y="113.94" width="75" height="52.5" as="geometry" />
        </mxCell>
        <mxCell id="3sKzdcCsHFWVjW7zBMvB-94" value="(1,1)" style="text;strokeColor=none;fillColor=none;html=1;fontSize=24;fontStyle=1;verticalAlign=middle;align=center;fontFamily=Helvetica;fontColor=default;" vertex="1" parent="1">
          <mxGeometry x="1111.44" y="205.81" width="60" height="40.63" as="geometry" />
        </mxCell>
        <mxCell id="3sKzdcCsHFWVjW7zBMvB-96" value="have" style="shape=rhombus;perimeter=rhombusPerimeter;whiteSpace=wrap;html=1;align=center;" vertex="1" parent="1">
          <mxGeometry x="913.31" y="237.68999999999994" width="80" height="60" as="geometry" />
        </mxCell>
        <mxCell id="3sKzdcCsHFWVjW7zBMvB-97" value="" style="endArrow=none;html=1;rounded=0;entryX=0;entryY=0.5;entryDx=0;entryDy=0;exitX=1;exitY=0.5;exitDx=0;exitDy=0;" edge="1" parent="1" source="3sKzdcCsHFWVjW7zBMvB-96">
          <mxGeometry width="50" height="50" relative="1" as="geometry">
            <mxPoint x="913.31" y="417.69" as="sourcePoint" />
            <mxPoint x="1113.31" y="267.69" as="targetPoint" />
          </mxGeometry>
        </mxCell>
        <mxCell id="3sKzdcCsHFWVjW7zBMvB-100" value="0:1" style="text;strokeColor=none;fillColor=none;html=1;fontSize=24;fontStyle=1;verticalAlign=middle;align=center;" vertex="1" parent="1">
          <mxGeometry x="913.31" y="201.44" width="70" height="30" as="geometry" />
        </mxCell>
        <mxCell id="3sKzdcCsHFWVjW7zBMvB-101" value="(0,0)" style="text;strokeColor=none;fillColor=none;html=1;fontSize=24;fontStyle=1;verticalAlign=middle;align=center;fontFamily=Helvetica;fontColor=default;" vertex="1" parent="1">
          <mxGeometry x="813.3099999999998" y="193.94" width="75" height="52.5" as="geometry" />
        </mxCell>
        <mxCell id="3sKzdcCsHFWVjW7zBMvB-103" value="have" style="shape=rhombus;perimeter=rhombusPerimeter;whiteSpace=wrap;html=1;align=center;" vertex="1" parent="1">
          <mxGeometry x="913.31" y="395.38" width="80" height="60" as="geometry" />
        </mxCell>
        <mxCell id="3sKzdcCsHFWVjW7zBMvB-104" value="AreaName" style="whiteSpace=wrap;html=1;align=center;fillColor=#008a00;fontColor=#ffffff;strokeColor=#005700;" vertex="1" parent="1">
          <mxGeometry x="1071.44" y="407.69" width="100" height="40" as="geometry" />
        </mxCell>
        <mxCell id="3sKzdcCsHFWVjW7zBMvB-105" value="" style="endArrow=none;html=1;rounded=0;entryX=0;entryY=0.5;entryDx=0;entryDy=0;exitX=1;exitY=0.5;exitDx=0;exitDy=0;" edge="1" parent="1" source="3sKzdcCsHFWVjW7zBMvB-103" target="3sKzdcCsHFWVjW7zBMvB-104">
          <mxGeometry width="50" height="50" relative="1" as="geometry">
            <mxPoint x="913.31" y="417.69" as="sourcePoint" />
            <mxPoint x="963.31" y="367.69" as="targetPoint" />
          </mxGeometry>
        </mxCell>
        <mxCell id="3sKzdcCsHFWVjW7zBMvB-107" value="0:1" style="text;strokeColor=none;fillColor=none;html=1;fontSize=24;fontStyle=1;verticalAlign=middle;align=center;" vertex="1" parent="1">
          <mxGeometry x="923.31" y="363.69" width="70" height="30" as="geometry" />
        </mxCell>
        <mxCell id="3sKzdcCsHFWVjW7zBMvB-108" value="" style="endArrow=none;html=1;rounded=0;entryX=0.5;entryY=0;entryDx=0;entryDy=0;exitX=0.5;exitY=1;exitDx=0;exitDy=0;" edge="1" parent="1" source="VhhlfXbD_9GwfbsZCxs5-2" target="3sKzdcCsHFWVjW7zBMvB-62">
          <mxGeometry width="50" height="50" relative="1" as="geometry">
            <mxPoint x="360" y="240" as="sourcePoint" />
            <mxPoint x="360" y="350" as="targetPoint" />
            <Array as="points" />
          </mxGeometry>
        </mxCell>
        <mxCell id="3sKzdcCsHFWVjW7zBMvB-66" value="(1,1)" style="text;strokeColor=none;fillColor=none;html=1;fontSize=24;fontStyle=1;verticalAlign=middle;align=center;fontFamily=Helvetica;fontColor=default;" vertex="1" parent="1">
          <mxGeometry x="366.5" y="248.75" width="68.5" height="47.38" as="geometry" />
        </mxCell>
        <mxCell id="3sKzdcCsHFWVjW7zBMvB-119" value="have" style="rhombus;whiteSpace=wrap;html=1;" vertex="1" parent="1">
          <mxGeometry x="1073.31" y="330.31" width="80" height="30" as="geometry" />
        </mxCell>
        <mxCell id="3sKzdcCsHFWVjW7zBMvB-120" value="" style="endArrow=none;html=1;rounded=0;entryX=0.5;entryY=1;entryDx=0;entryDy=0;exitX=0.5;exitY=0;exitDx=0;exitDy=0;" edge="1" parent="1" source="3sKzdcCsHFWVjW7zBMvB-119" target="3sKzdcCsHFWVjW7zBMvB-146">
          <mxGeometry width="50" height="50" relative="1" as="geometry">
            <mxPoint x="873.31" y="593.75" as="sourcePoint" />
            <mxPoint x="1122.31" y="292.75" as="targetPoint" />
          </mxGeometry>
        </mxCell>
        <mxCell id="3sKzdcCsHFWVjW7zBMvB-121" value="" style="endArrow=none;html=1;rounded=0;exitX=0.404;exitY=0.083;exitDx=0;exitDy=0;exitPerimeter=0;" edge="1" parent="1" source="3sKzdcCsHFWVjW7zBMvB-104" target="3sKzdcCsHFWVjW7zBMvB-119">
          <mxGeometry width="50" height="50" relative="1" as="geometry">
            <mxPoint x="873.31" y="593.75" as="sourcePoint" />
            <mxPoint x="1123.31" y="373.75" as="targetPoint" />
          </mxGeometry>
        </mxCell>
        <mxCell id="3sKzdcCsHFWVjW7zBMvB-122" value="(1,N)" style="text;strokeColor=none;fillColor=none;html=1;fontSize=24;fontStyle=1;verticalAlign=middle;align=center;fontFamily=Helvetica;fontColor=default;" vertex="1" parent="1">
          <mxGeometry x="1108.31" y="360.31" width="68.13" height="52.5" as="geometry" />
        </mxCell>
        <mxCell id="3sKzdcCsHFWVjW7zBMvB-123" value="(1,1)" style="text;strokeColor=none;fillColor=none;html=1;fontSize=24;fontStyle=1;verticalAlign=middle;align=center;fontFamily=Helvetica;fontColor=default;" vertex="1" parent="1">
          <mxGeometry x="1111.44" y="282.31" width="61.87" height="58" as="geometry" />
        </mxCell>
        <mxCell id="3sKzdcCsHFWVjW7zBMvB-124" value="1:N" style="text;strokeColor=none;fillColor=none;html=1;fontSize=24;fontStyle=1;verticalAlign=middle;align=center;" vertex="1" parent="1">
          <mxGeometry x="1148.31" y="330.31" width="70" height="30" as="geometry" />
        </mxCell>
        <mxCell id="3sKzdcCsHFWVjW7zBMvB-125" value="1:N" style="text;strokeColor=none;fillColor=none;html=1;fontSize=24;fontStyle=1;verticalAlign=middle;align=center;" vertex="1" parent="1">
          <mxGeometry x="1148.31" y="166.25" width="70" height="30" as="geometry" />
        </mxCell>
        <mxCell id="3sKzdcCsHFWVjW7zBMvB-126" value="" style="endArrow=none;html=1;rounded=0;entryX=0.5;entryY=1;entryDx=0;entryDy=0;" edge="1" parent="1" source="3sKzdcCsHFWVjW7zBMvB-18" target="3sKzdcCsHFWVjW7zBMvB-79">
          <mxGeometry width="50" height="50" relative="1" as="geometry">
            <mxPoint x="790" y="517.69" as="sourcePoint" />
            <mxPoint x="840" y="467.69" as="targetPoint" />
          </mxGeometry>
        </mxCell>
        <mxCell id="3sKzdcCsHFWVjW7zBMvB-127" value="" style="endArrow=none;html=1;rounded=0;entryX=0;entryY=0.5;entryDx=0;entryDy=0;exitX=1;exitY=0.5;exitDx=0;exitDy=0;" edge="1" parent="1" source="3sKzdcCsHFWVjW7zBMvB-59" target="3sKzdcCsHFWVjW7zBMvB-18">
          <mxGeometry width="50" height="50" relative="1" as="geometry">
            <mxPoint x="580" y="643" as="sourcePoint" />
            <mxPoint x="840" y="422.69" as="targetPoint" />
            <Array as="points" />
          </mxGeometry>
        </mxCell>
        <mxCell id="3sKzdcCsHFWVjW7zBMvB-128" value="id(Long)" style="ellipse;whiteSpace=wrap;html=1;align=center;fillColor=#d5e8d4;strokeColor=#82b366;" vertex="1" parent="1">
          <mxGeometry x="613.31" y="126.44" width="100" height="27.5" as="geometry" />
        </mxCell>
        <mxCell id="3sKzdcCsHFWVjW7zBMvB-129" value="" style="endArrow=none;html=1;rounded=0;entryX=0.5;entryY=1;entryDx=0;entryDy=0;exitX=0.25;exitY=0;exitDx=0;exitDy=0;" edge="1" parent="1" source="3sKzdcCsHFWVjW7zBMvB-71" target="3sKzdcCsHFWVjW7zBMvB-128">
          <mxGeometry width="50" height="50" relative="1" as="geometry">
            <mxPoint x="793.31" y="367.69" as="sourcePoint" />
            <mxPoint x="843.31" y="317.69" as="targetPoint" />
          </mxGeometry>
        </mxCell>
        <mxCell id="3sKzdcCsHFWVjW7zBMvB-141" value="" style="endArrow=none;html=1;rounded=0;exitX=0.5;exitY=0;exitDx=0;exitDy=0;" edge="1" parent="1" source="VhhlfXbD_9GwfbsZCxs5-36">
          <mxGeometry width="50" height="50" relative="1" as="geometry">
            <mxPoint x="316.69" y="605" as="sourcePoint" />
            <mxPoint x="359.69" y="550" as="targetPoint" />
          </mxGeometry>
        </mxCell>
        <mxCell id="VhhlfXbD_9GwfbsZCxs5-33" value="(0,N)" style="text;strokeColor=none;fillColor=none;html=1;fontSize=24;fontStyle=1;verticalAlign=middle;align=center;fontFamily=Helvetica;fontColor=default;" parent="1" vertex="1">
          <mxGeometry x="336.69" y="450" width="100" height="40" as="geometry" />
        </mxCell>
        <mxCell id="3sKzdcCsHFWVjW7zBMvB-143" value="" style="endArrow=none;html=1;rounded=0;entryX=0;entryY=0.5;entryDx=0;entryDy=0;exitX=1;exitY=0.5;exitDx=0;exitDy=0;" edge="1" parent="1" source="3sKzdcCsHFWVjW7zBMvB-85" target="3sKzdcCsHFWVjW7zBMvB-88">
          <mxGeometry width="50" height="50" relative="1" as="geometry">
            <mxPoint x="793.31" y="357.69" as="sourcePoint" />
            <mxPoint x="843.31" y="307.69" as="targetPoint" />
          </mxGeometry>
        </mxCell>
        <mxCell id="3sKzdcCsHFWVjW7zBMvB-146" value="Province" style="whiteSpace=wrap;html=1;align=center;fillColor=#008a00;fontColor=#ffffff;strokeColor=#005700;" vertex="1" parent="1">
          <mxGeometry x="1063.31" y="253.01" width="100" height="40" as="geometry" />
        </mxCell>
      </root>
    </mxGraphModel>
  </diagram>
</mxfile>
